<svg 
xmlns="http://www.w3.org/2000/svg" 
viewBox="0 0 1155.92 545.45"
fill="#fff">
<defs><style>.b{font-size:188.17px;font-family:BernardMT-Condensed, Bernard MT Condensed;}</style></defs><path class="a" d="M199.62,628.71q-4.94-3.33-13.91-3.33H170.34v41.87h6.55V651.89h7.38q9.31,0,14.8-3.87t5.48-9.91A10.68,10.68,0,0,0,199.62,628.71Zm-5.5,16.36q-3.57,2.38-10.36,2.38h-6.87V629.82h7.69c4.37,0,7.64.71,9.83,2.13a7.13,7.13,0,0,1,3.28,6.39A7.62,7.62,0,0,1,194.12,645.07Z" transform="translate(-95.08 -124)"/><path class="a" d="M224.61,625.38l-21.46,41.87h7.3L215.79,656H240l5.66,11.21h7.26L231.4,625.38ZM218,651.63l8.93-18.37a7.37,7.37,0,0,0,.49-1.22c.14-.47.28-1,.41-1.58H228c.15.64.29,1.2.43,1.67a5.52,5.52,0,0,0,.42,1.13l9.06,18.37Z" transform="translate(-95.08 -124)"/><path class="a" d="M299.72,654.87c0,1.44,0,2.67.1,3.71a16.65,16.65,0,0,0,.29,2.45H300a10.85,10.85,0,0,0-.8-1.08c-.37-.47-.86-1-1.46-1.72l-28-32.85h-8.51v41.87h6.56V637c0-1.48,0-2.69-.08-3.65a12.43,12.43,0,0,0-.24-2.1h.24a12.34,12.34,0,0,0,.8,1.33c.3.44.63.87,1,1.3l28.8,33.37h8V625.38h-6.56Z" transform="translate(-95.08 -124)"/><path class="a" d="M335.93,625.38l-21.46,41.87h7.3L327.11,656h24.23L357,667.25h7.26l-21.54-41.87Zm-6.63,26.25,8.93-18.37a7.37,7.37,0,0,0,.49-1.22c.14-.47.28-1,.41-1.58h.16c.15.64.29,1.2.42,1.67a6.12,6.12,0,0,0,.43,1.13l9.06,18.37Z" transform="translate(-95.08 -124)"/><path class="a" d="M410.12,630.48q-7.39-5.1-22.18-5.1H372.49v41.87h14.83q13.77,0,22-5.89t8.22-15.57Q417.52,635.58,410.12,630.48Zm-5.6,27.92q-6.12,4.41-17.13,4.41H379v-33h8.75q11.43,0,17.14,4t5.72,12.08Q410.65,654,404.52,658.4Z" transform="translate(-95.08 -124)"/><polygon class="a" points="340 524.15 360.21 524.15 360.21 519.75 340 519.75 340 505.82 361.85 505.82 361.85 501.38 333.44 501.38 333.44 543.25 363.1 543.25 363.1 538.81 340 538.81 340 524.15"/><path class="a" d="M494.19,650.43a18.54,18.54,0,0,0-3.08-1.72v-.12a18,18,0,0,0,8.46-4.35,9.94,9.94,0,0,0,3.08-7.44,9.32,9.32,0,0,0-4.85-8.53,23.41,23.41,0,0,0-12.16-2.89h-16.7v41.87h6.56V650.14h6.44a10.4,10.4,0,0,1,4.64,1,15.91,15.91,0,0,1,4.6,4.28l9.6,11.88h7.81L497,653.17A15.11,15.11,0,0,0,494.19,650.43Zm-9.8-4.73H475.5V629.82h9q5.5,0,8.41,2a6.25,6.25,0,0,1,2.91,5.38,7.27,7.27,0,0,1-3.26,6.13A13.52,13.52,0,0,1,484.39,645.7Z" transform="translate(-95.08 -124)"/><rect class="a" x="421.66" y="501.38" width="6.56" height="41.87"/><polygon class="a" points="419.95 497.53 424.9 497.53 435.12 487.95 428.65 487.95 419.95 497.53"/><path class="a" d="M553,625.38l-21.46,41.87h7.29L544.17,656H568.4l5.66,11.21h7.26l-21.54-41.87Zm-6.63,26.25,8.93-18.37a8.36,8.36,0,0,0,.49-1.22c.14-.47.28-1,.41-1.58h.15c.16.64.3,1.2.43,1.67a6.12,6.12,0,0,0,.43,1.13l9,18.37Z" transform="translate(-95.08 -124)"/><path class="a" d="M603.12,638.23a7.82,7.82,0,0,0-5.57,2.2,7,7,0,0,0,0,10.4,8.23,8.23,0,0,0,11.14,0,7,7,0,0,0,0-10.4A7.82,7.82,0,0,0,603.12,638.23Z" transform="translate(-95.08 -124)"/><path class="a" d="M680.79,663a39.53,39.53,0,0,1-6.65.56q-9.17,0-14.73-4.53a14.89,14.89,0,0,1-5.56-12.2q0-8.2,5.8-12.95t15.62-4.74a40.72,40.72,0,0,1,6.25.45,36.25,36.25,0,0,1,6,1.48l2.42-4a45.62,45.62,0,0,0-7.16-1.78,46.51,46.51,0,0,0-7.39-.56q-12.65,0-20.5,6.09A19.58,19.58,0,0,0,647,647.1a18.55,18.55,0,0,0,7,15.1q7,5.74,19.72,5.75a49.88,49.88,0,0,0,8.39-.67,48.19,48.19,0,0,0,7.92-2.13l-2.61-4A36.4,36.4,0,0,1,680.79,663Z" transform="translate(-95.08 -124)"/><polygon class="a" points="640.55 519.75 611.6 519.75 611.6 501.38 605.05 501.38 605.05 543.25 611.6 543.25 611.6 524.15 640.55 524.15 640.55 543.25 647.11 543.25 647.11 501.38 640.55 501.38 640.55 519.75"/><path class="a" d="M799,630.52q-7.08-5.84-18.67-5.84-12.57,0-19.86,6t-7.3,16.11a18.82,18.82,0,0,0,7.16,15.27q7.15,5.86,19.06,5.87,12.18,0,19.43-6t7.26-16.2A18.84,18.84,0,0,0,799,630.52ZM793.93,659q-5.31,4.5-14.52,4.5-8.62,0-14-4.72a17,17,0,0,1,.14-24.94q5.51-4.75,14.32-4.76,9.06,0,14.2,4.52t5.15,12.82Q799.23,654.55,793.93,659Z" transform="translate(-95.08 -124)"/><path class="a" d="M847.25,663a39.64,39.64,0,0,1-6.66.56q-9.17,0-14.73-4.53a14.91,14.91,0,0,1-5.56-12.2q0-8.2,5.8-12.95t15.62-4.74a40.72,40.72,0,0,1,6.25.45,36.6,36.6,0,0,1,6,1.48l2.42-4a46.17,46.17,0,0,0-7.16-1.78,46.73,46.73,0,0,0-7.4-.56q-12.63,0-20.5,6.09a19.59,19.59,0,0,0-7.86,16.33,18.54,18.54,0,0,0,7,15.1q7,5.74,19.72,5.75a49.79,49.79,0,0,0,8.39-.67,47.67,47.67,0,0,0,7.92-2.13l-2.61-4A36.09,36.09,0,0,1,847.25,663Z" transform="translate(-95.08 -124)"/><path class="a" d="M906.59,630.52q-7.08-5.84-18.67-5.84-12.55,0-19.86,6t-7.29,16.11a18.81,18.81,0,0,0,7.15,15.27q7.17,5.86,19.07,5.87,12.16,0,19.43-6t7.25-16.2A18.84,18.84,0,0,0,906.59,630.52ZM901.5,659q-5.31,4.5-14.51,4.5-8.62,0-14-4.72a17,17,0,0,1,.13-24.94q5.5-4.75,14.32-4.76,9.06,0,14.21,4.52t5.15,12.82Q906.81,654.55,901.5,659Z" transform="translate(-95.08 -124)"/><polygon class="a" points="836.15 501.38 829.6 501.38 829.6 543.25 858.63 543.25 858.63 538.81 836.15 538.81 836.15 501.38"/><path class="a" d="M979.62,625.38l-21.46,41.87h7.29L970.8,656H995l5.66,11.21h7.25L986.4,625.38ZM973,651.63l8.94-18.37a8.36,8.36,0,0,0,.49-1.22c.14-.47.27-1,.4-1.58H983c.16.64.3,1.2.43,1.67a5.48,5.48,0,0,0,.43,1.13l9,18.37Z" transform="translate(-95.08 -124)"/><polygon class="a" points="909.55 505.82 925.66 505.82 925.66 543.25 932.22 543.25 932.22 505.82 948.37 505.82 948.37 501.38 909.55 501.38 909.55 505.82"/><polygon class="a" points="963.78 524.15 984 524.15 984 519.75 963.78 519.75 963.78 505.82 985.63 505.82 985.63 501.38 957.23 501.38 957.23 543.25 986.88 543.25 986.88 538.81 963.78 538.81 963.78 524.15"/><path class="a" d="M1118,650.43a18.15,18.15,0,0,0-3.08-1.72v-.12a18.07,18.07,0,0,0,8.47-4.35,10,10,0,0,0,3.08-7.44,9.33,9.33,0,0,0-4.86-8.53,23.38,23.38,0,0,0-12.15-2.89h-16.7v41.87h6.56V650.14h6.43a10.45,10.45,0,0,1,4.65,1,15.91,15.91,0,0,1,4.6,4.28l9.6,11.88h7.8l-11.59-14.08A14.81,14.81,0,0,0,1118,650.43Zm-9.79-4.73h-8.89V629.82h9q5.51,0,8.41,2a6.24,6.24,0,0,1,2.9,5.38,7.26,7.26,0,0,1-3.25,6.13A13.56,13.56,0,0,1,1108.18,645.7Z" transform="translate(-95.08 -124)"/><polygon class="a" points="1043.73 497.53 1048.69 497.53 1058.91 487.95 1052.43 487.95 1043.73 497.53"/><rect class="a" x="1045.45" y="501.38" width="6.55" height="41.87"/><path class="a" d="M1183.56,625.38h-6.78l-21.46,41.87h7.29L1168,656h24.23l5.66,11.21h7.25Zm-13.42,26.25,8.94-18.37a8.36,8.36,0,0,0,.49-1.22c.14-.47.27-1,.4-1.58h.16c.16.64.3,1.2.43,1.67a5.48,5.48,0,0,0,.43,1.13l9,18.37Z" transform="translate(-95.08 -124)"/><text x="-95.08" y="-124"/><path d="M401.89,141.57Q376.78,124,334.59,124H236.83q-5,0-6.4,1.18t-1.43,4.9l.19,5.84c.13,2.56,2,4.47,5.54,5.71q10.11,3.23,10.12,8.56v150c0,1.91-.42,3.25-1.24,4s-2.9,1.51-6.21,2.17c-3.69.74-5.86,1.59-6.49,2.54s-1,3.5-1,7.64q0,7.81,6.88,7.82h86.49q6.3,0,8.4-1.18c1.4-.79,2.1-2.83,2.1-6.14q0-5.22-1.81-7.14c-1.21-1.28-3.34-2.3-6.4-3q-9.54-2.24-9.54-9.44V256.08h23.86A126.82,126.82,0,0,0,372.68,252a120.91,120.91,0,0,0,27.11-10.55q11.74-6.47,19.48-20.12T427,190.17Q427,159.14,401.89,141.57Zm-54.7,79q0,11.41-5.44,16.32a17.93,17.93,0,0,1-12.32,4.91H316.07v-104h9.73q21.39,0,21.39,20.85Z" transform="translate(-95.08 -124)"/><path d="M509.35,309.37q-5.22-1.35-5.21-7V130.67c0-2.46-.47-3.85-1.39-4.18A21.45,21.45,0,0,0,497,126H443.3q-7.31,0-7.3,3.93v6.15q0,4.66,5.91,6.76c3.13,1,4.69,2.91,4.69,5.77V300.89q0,2.94-.87,4c-.58.7-2,1.46-4.34,2.27q-5.38,2.1-5.39,6.39v7q0,3.81,5.39,3.81h63.79q7.81,0,7.82-3.81v-7Q513,310.35,509.35,309.37Z" transform="translate(-95.08 -124)"/><path d="M663.93,312.21c-2.86-1.47-4.39-2.44-4.6-2.88V221.52q0-8.75-8.6-16.06t-22.91-10.38A154.42,154.42,0,0,0,595.55,192q-27.3,0-44.24,7.8t-16.94,20.11q0,13.1,19.47,13.09a77.83,77.83,0,0,0,17.86-2c5.57-1.32,9.15-2.9,10.74-4.77s2.37-5,2.37-9.33q0-11.66,13.65-11.65,10,0,10,7.7v18.58q-12.12,3.65-30.52,8.07-29,7.13-38.94,15.53T529,285.3q0,21.74,10.67,31.3t30.12,9.57a60.87,60.87,0,0,0,17-2.41q8.28-2.4,21.62-11.07a22.2,22.2,0,0,0,12.42,10.73q8,2.74,19.93,2.75a82.5,82.5,0,0,0,16.33-1.35c4.34-.9,7.08-1.88,8.2-2.94S667,319,667,316.45C667,314.59,666,313.17,663.93,312.21Zm-55.5-18.94q0,12.3-11.81,12.3-6.75,0-9.51-4.08t-2.76-19.56q0-21,3.38-27.05t20.7-10.81Z" transform="translate(-95.08 -124)"/><path d="M773.22,224.76q0,6.26,5.86,10.44T796,239.4q10.62,0,15.86-4.34a13.39,13.39,0,0,0,5.24-10.61q0-12-15.73-21.21T758.54,194q-22.77,0-38,7.38T694.69,224Q684,239.19,684,262.11q-.06,30.6,20.81,47.3t53.51,16.77q27.79,0,42.92-10.78t15.15-25.53c0-3-.92-5-2.79-6s-5.34-1.43-10.44-1.44q-8.77,0-12.41.93c-2.42.63-3.64,2.62-3.64,6l.18,2.65q0,9.3-5.16,15.12t-14.46,5.8q-6.9,0-10.72-2.62c-2.55-1.74-3.82-3.71-3.82-5.93l.15-91.79c0-1.57,1.06-3,3.18-4.35a14.1,14.1,0,0,1,7.65-2,18.54,18.54,0,0,1,8.21,1.72q3.54,1.71,3.54,4.17a20.44,20.44,0,0,1-1.51,6.45A20.89,20.89,0,0,0,773.22,224.76Z" transform="translate(-95.08 -124)"/><path d="M952.57,206.85Q934.48,192,904.63,192q-34.77,0-56.2,17.63T827,261q0,33.71,23.18,50.45t56.38,16.76q29,0,46.54-11.73t17.56-26.76q0-4.29-2.54-5.37t-12-1.08q-10.89,0-12.74,1.18t-2,7q-.52,10.94-8.51,17.24T911.48,315q-8.61,0-14.14-4.49t-5.53-12.41V258.13h78.85v-9.08Q970.66,221.69,952.57,206.85Zm-37.05,39.07H891.81V213.59q0-9.18,11.94-9.18,11.76,0,11.77,9.18Z" transform="translate(-95.08 -124)"/><path d="M1080.73,195.57q-5.26-5.56-15.64-5.57a30.11,30.11,0,0,0-13.91,3.22q-6.3,3.22-12.87,15.93a41.23,41.23,0,0,1-5,8.2v-20c0-2.61-.4-4.25-1.21-4.94s-2.3-1-4.49-1H981a15.22,15.22,0,0,0-6.14.88c-1.21.58-1.81,2.05-1.81,4.39,0,2.8.23,4.48.69,5s2.19,1.32,5.18,2.3c2.77,1,4.15,2.57,4.15,4.78v98.37q0,3.42-5.87,5.08a3.56,3.56,0,0,0-2.94,3.61v5.37c0,2.42,2.25,3.62,6.74,3.62h65.14c3,0,4.81-.21,5.44-.64s1-1.41,1-3v-4.39c0-2.47-2-4.27-6-5.37s-6-3-6-5.47v-78q0-9.68,7.77-9.67,3.1,0,6,3.42,4.83,6,13.82,6,18,0,18-18.07A19.54,19.54,0,0,0,1080.73,195.57Z" transform="translate(-95.08 -124)"/><path d="M327.85,539.09V387c-.42-1.67-3-2.93-7.6-3.77q-5.49-1-7.39-2.95t-1.9-8.35c0-3.1.91-5.15,2.75-6.16s6.54-1.5,14.14-1.5H429q43.28,0,71.66,23.74T529,466.86q0,50.25-27.44,75.18T429,567H317.5c-3.09,0-5.24-.44-6.43-1.32s-1.8-2.82-1.8-5.84q0-5.4.64-6.78t6.12-3.14Q327.85,546.25,327.85,539.09Zm78.52-159.9v174h11.18q11.82,0,17.31-5.85t5.49-20.78V398.16a16.57,16.57,0,0,0-6.76-13.69q-6.75-5.28-19.2-5.28Z" transform="translate(-95.08 -124)"/><path d="M606,497.89V538.3q0,8,5.38,12.55t13.75,4.54q13,0,20.75-6.37t8.28-17.44c.12-4,.77-6.32,2-7.11s5.32-1.19,12.38-1.19q9.23,0,11.7,1.09t2.48,5.43q0,15.23-17.08,27.07t-45.27,11.86q-32.28,0-54.82-16.94t-22.55-51q0-34.08,20.84-51.92T618.5,431q29,0,46.62,15t17.6,42.68v9.19Zm23.06-12.35V452.83q0-9.29-11.45-9.28-11.61,0-11.61,9.28v32.71Z" transform="translate(-95.08 -124)"/><path d="M696,377.16V371q0-4,6.73-4h49.5a17.71,17.71,0,0,1,5.28.5c.86.33,1.28,1.73,1.28,4.21V544.79c0,3.8,1.61,6.16,4.81,7.07q3.36,1,3.36,4.21v7.06q0,3.84-7.21,3.84H701c-3.32,0-5-1.28-5-3.84v-7.06c0-2.89,1.65-5,5-6.44,2.13-.83,3.46-1.59,4-2.3s.8-2,.8-4V389.8q0-4.33-4.32-5.83Q696,381.87,696,377.16Z" transform="translate(-95.08 -124)"/><path d="M779.69,442.67v-6.31q0-3.17,7.27-3.17h58q6.18,0,6.18,3.17V546.48a5.37,5.37,0,0,0,.53,3c.36.45,1.43.87,3.22,1.25q6.42,1.34,6.43,5.94,0,5.26-.91,6.32c-.6.7-2.54,1-5.8,1H784.22c-1.69-.13-2.78-.53-3.26-1.2s-.73-2.44-.73-5.31c0-3.45,1.57-5.46,4.73-6,3.87-.71,5.81-2,5.81-3.83V452.16q0-5.57-7.81-6.71C780.78,445.13,779.69,444.21,779.69,442.67Z" transform="translate(-95.08 -124)"/><path d="M833.58,370q20.53,0,20.54,16.31,0,12.87-13.72,21.78A56,56,0,0,1,809.22,417q-22.53,0-22.54-17.81,0-14.18,15.82-21.68T833.58,370Z" transform="translate(-95.08 -124)"/><path d="M943.37,457.18a40.68,40.68,0,0,0,5.1-8.15q6.67-12.63,13.1-15.83a31.3,31.3,0,0,1,14.15-3.2q10.56,0,15.92,5.53A19.18,19.18,0,0,1,997,449.42q0,18-18.29,18-9.13,0-14.07-5.93-3-3.39-6.15-3.39-7.9,0-7.91,9.61v77.56q0,3.71,6.15,5.44c4.1,1.1,6.16,2.88,6.16,5.34v4.37c0,1.55-.33,2.54-1,3s-2.49.63-5.54.63H890.09q-6.86,0-6.86-3.59V555c0-1.81,1-3,3-3.59,4-1.1,6-2.78,6-5.05V448.64q0-3.3-4.22-4.76-4.58-1.45-5.28-2.28c-.47-.55-.7-2.22-.7-5q0-3.5,1.85-4.37a15.92,15.92,0,0,1,6.24-.87h47.48c2.22,0,3.75.34,4.57,1s1.23,2.31,1.23,4.9Z" transform="translate(-95.08 -124)"/><path d="M1177.9,426q31.23,0,52.17,16.65T1251,492.1q0,35.37-21.26,53.5t-53,18.13q-21.93,0-38-8.3t-24.84-22.13q-8.71-13.83-8.72-37.84,0-34.29,20-51.87T1177.9,426Zm12,24.8q0-12.26-12-12.25-13,0-13,15v82.1q0,14.93,11.8,14.92,13.13,0,13.12-14.92Z" transform="translate(-95.08 -124)"/><path d="M1010.79,443.14v-6.32c0-2.1,2.42-3.16,7.27-3.16h58c4.12,0,6.18,1.06,6.18,3.16V546.94a5.28,5.28,0,0,0,.54,3c.36.45,1.43.86,3.21,1.25q6.43,1.33,6.43,5.93c0,3.52-.3,5.62-.91,6.32s-2.54,1.06-5.8,1.06h-70.36q-2.55-.19-3.27-1.2c-.48-.67-.73-2.44-.73-5.31q0-5.18,4.73-6c3.88-.7,5.82-2,5.82-3.83V452.62q0-5.55-7.82-6.7Q1010.79,445.44,1010.79,443.14Z" transform="translate(-95.08 -124)"/><path d="M1064.68,370.47q20.55,0,20.54,16.31,0,12.87-13.72,21.78a56,56,0,0,1-31.17,8.91q-22.54,0-22.54-17.81,0-14.18,15.81-21.68T1064.68,370.47Z" transform="translate(-95.08 -124)"/><text class="b" transform="translate(0 372.23) scale(1.67 1)">&amp;</text></svg>